HIERARCHY
ROOT root
{
	OFFSET	0	13.1	24.9
	CHANNELS 6  Xposition Yposition Zposition Xrotation Yrotation Zrotation
	JOINT spine_1
	{
		OFFSET	0	9.99999	0
		CHANNELS 3  Xrotation Yrotation Zrotation
		JOINT spine_2
		{
			OFFSET	0	112	-10
			CHANNELS 3  Xrotation Yrotation Zrotation
			JOINT spine_3
			{
				OFFSET	0	206.5	19.3
				CHANNELS 3  Xrotation Yrotation Zrotation
				JOINT spine_4
				{
					OFFSET	0	110.4	14.6
					CHANNELS 3  Xrotation Yrotation Zrotation
					JOINT neck_1
					{
						OFFSET	0	71.8	-50.3
						CHANNELS 3  Xrotation Yrotation Zrotation
						JOINT neck_2
						{
							OFFSET	0	86.2	-25.8
							CHANNELS 3  Xrotation Yrotation Zrotation
							JOINT head_ee
							{
								OFFSET	0	179.8	-8.7
								CHANNELS 3  Xrotation Yrotation Zrotation
								End Site
								{
									OFFSET	1	0	0
								}
							}
						}
					}
					JOINT left_clavicle
					{
						OFFSET	-43.2	22.4	-70.8
						CHANNELS 3  Xrotation Yrotation Zrotation
						JOINT left_shoulder
						{
							OFFSET	-93.9	-5.79999	48.7
							CHANNELS 3  Xrotation Yrotation Zrotation
							JOINT left_elbow
							{
								OFFSET	-291.4	-30.8	15.2
								CHANNELS 3  Xrotation Yrotation Zrotation
								JOINT left_lowarm_twist
								{
									OFFSET	-110.7	-3.89999	13.6
									CHANNELS 3  Xrotation Yrotation Zrotation
									JOINT left_hand
									{
										OFFSET	-110.7	-3.89999	13.6
										CHANNELS 3  Xrotation Yrotation Zrotation
										JOINT left_ee
										{
											OFFSET	-80.8	-5.10001	12.1
											CHANNELS 3  Xrotation Yrotation Zrotation
											End Site
											{
												OFFSET	1	0	0
											}
										}
									}
								}
							}
						}
					}
					JOINT right_clavicle
					{
						OFFSET	43.2	22.4	-70.8
						CHANNELS 3  Xrotation Yrotation Zrotation
						JOINT right_shoulder
						{
							OFFSET	93.9	-5.79999	48.7
							CHANNELS 3  Xrotation Yrotation Zrotation
							JOINT right_elbow
							{
								OFFSET	291.4	-30.8	15.2
								CHANNELS 3  Xrotation Yrotation Zrotation
								JOINT right_lowarm_twist
								{
									OFFSET	110.7	-3.89999	13.6
									CHANNELS 3  Xrotation Yrotation Zrotation
									JOINT right_hand
									{
										OFFSET	110.7	-3.89999	13.6
										CHANNELS 3  Xrotation Yrotation Zrotation
										JOINT right_ee
										{
											OFFSET	80.8	-5.10001	12.1
											CHANNELS 3  Xrotation Yrotation Zrotation
											End Site
											{
												OFFSET	1	0	0
											}
										}
									}
								}
							}
						}
					}
				}
			}
		}
	}
	JOINT left_hip
	{
		OFFSET	-82.8	-127.5	0.300001
		CHANNELS 3  Xrotation Yrotation Zrotation
		JOINT left_knee
		{
			OFFSET	-28.2	-396.7	2.2
			CHANNELS 3  Xrotation Yrotation Zrotation
			JOINT left_ankle
			{
				OFFSET	-11.7	-411.3	35.4
				CHANNELS 3  Xrotation Yrotation Zrotation
				JOINT left_toes
				{
					OFFSET	0	-60	-88.6
					CHANNELS 3  Xrotation Yrotation Zrotation
					JOINT left_foot_ee
					{
						OFFSET	-22.5	-16.5	-42.2
						CHANNELS 3  Xrotation Yrotation Zrotation
						End Site
						{
							OFFSET	1	0	0
						}
					}
				}
			}
		}
	}
	JOINT right_hip
	{
		OFFSET	82.8	-127.5	0.300001
		CHANNELS 3  Xrotation Yrotation Zrotation
		JOINT right_knee
		{
			OFFSET	28.2	-396.7	2.2
			CHANNELS 3  Xrotation Yrotation Zrotation
			JOINT right_ankle
			{
				OFFSET	11.7	-411.3	35.4
				CHANNELS 3  Xrotation Yrotation Zrotation
				JOINT right_toes
				{
					OFFSET	0	-60	-88.6
					CHANNELS 3  Xrotation Yrotation Zrotation
					JOINT right_foot_ee
					{
						OFFSET	22.5	-16.5	-42.2
						CHANNELS 3  Xrotation Yrotation Zrotation
						End Site
						{
							OFFSET	1	0	0
						}
					}
				}
			}
		}
	}
}
MOTION
Frames: 5
Frame Time: 0.02
1258.21543735 736.046 -1770.03293318 6.07445845058 17.1346664416 -11.7261846077 -2.37708 0.750347 2.96421 -2.37236 0.560295 3.00589 -2.33663 -0.208458 3.05051 -2.34951 0.2757 3.04518 4.82399 1.36353 -0.343324 4.83336 2.64075 -0.320653 -0.0 0.0 -0.0 4.07753 -19.5887 6.48293 -11.3338 19.139 74.2505 0.520312 -14.4534 0.0659776 37.2139 -0.212336 -4.66657 -0.276338 -5.54479 -4.21727 -0.0 0.0 -0.0 9.81453 28.1971 -18.2024 22.3934 -29.7547 -64.3017 0.744137 20.2351 -0.132788 60.8303 1.8484 7.18399 -1.43857 -28.6314 -3.38931 0.0 0.0 0.0 13.7086 4.26124 7.5315 -58.0977 -1.99812 8.31254 34.9615 10.6812 -4.41206 -11.3483 0.0 0.0 -0.0 0.0 -0.0 7.73008 -5.22197 9.99402 -12.6594 -0.310869 -1.91396 17.8056 2.6935 2.49284 22.7929 -0.0 -0.0 0.0 0.0 0.0 
1230.99633955 739.325 -1785.28047658 6.85097828027 19.2484450972 -12.5774041802 -2.59349 0.896806 3.07122 -2.58852 0.699657 3.122 -2.54301 -0.113863 3.19733 -2.55706 0.392265 3.17524 5.29611 1.64148 -0.591879 5.31257 3.32647 -0.60158 -0.0 0.0 -0.0 3.9723 -18.0144 6.39856 -12.1185 21.3 75.4269 0.384328 -10.7794 0.0362603 36.4894 -0.179369 -4.58001 -0.343189 -5.92655 -4.8332 -0.0 0.0 -0.0 10.1897 29.2605 -18.9089 24.4603 -29.7503 -63.1195 0.827289 22.2844 -0.162943 61.2933 1.89041 7.22593 -1.17171 -28.69 -4.85409 0.0 0.0 0.0 20.0002 3.10354 7.52778 -63.321 -2.56906 8.88085 34.6358 8.94836 -4.37027 -10.9669 0.0 0.0 -0.0 0.0 -0.0 5.96068 -7.73824 11.2267 -12.9877 -0.313269 -1.96428 18.2662 2.52991 2.55061 22.9231 -0.0 -0.0 0.0 0.0 0.0 
1210.77358563 738.318 -1794.47225996 7.5691083144 22.6069750012 -13.4709795695 -2.70833 0.838804 3.23328 -2.70274 0.631476 3.28003 -2.65845 -0.226716 3.3325 -2.67382 0.302137 3.32652 5.34884 0.97536 -0.704532 5.35831 2.28569 -0.763089 -0.0 0.0 -0.0 3.76728 -17.8789 5.9711 -13.2116 21.6211 76.4666 0.288945 -8.14587 0.0205746 36.1854 -0.165865 -4.54357 -0.484005 -3.87908 -4.90519 -0.0 0.0 -0.0 10.5021 28.8593 -19.6565 27.113 -28.4904 -62.1922 0.828806 22.3212 -0.163519 61.3771 1.89805 7.23349 -0.783997 -27.282 -6.38801 0.0 0.0 0.0 24.0992 1.1656 7.95702 -66.068 -2.8896 9.15843 34.5589 7.86493 -4.3587 -11.166 0.0 0.0 -0.0 0.0 -0.0 5.16223 -10.6116 12.2449 -13.4503 -0.316161 -2.03519 17.3023 4.19107 2.44005 23.3245 -0.0 -0.0 0.0 0.0 0.0 
1185.09236516 736.328 -1798.61427697 7.93249216013 25.4684277167 -13.6387794 -2.65406 0.944387 3.09257 -2.64905 0.745786 3.14632 -2.60043 -0.0785729 3.23246 -2.61475 0.432653 3.20437 3.42482 1.16814 -0.779924 3.43601 2.69779 -0.796294 -0.0 0.0 -0.0 3.61275 -16.5335 5.76049 -14.7638 21.2157 77.6395 0.265779 -7.50055 0.0174213 36.0332 -0.159173 -4.52529 -0.410966 0.356486 -2.59234 -0.0 0.0 -0.0 10.3747 28.1303 -19.4608 32.2935 -25.4839 -61.6136 0.773743 20.9712 -0.143206 61.2179 1.88355 7.21913 -0.478616 -28.3909 -8.49965 0.0 0.0 0.0 24.6343 2.6873 6.47939 -64.7994 -2.73991 9.03214 32.0532 6.00303 -4.10357 -11.1044 0.0 0.0 -0.0 0.0 -0.0 4.95729 -12.9934 12.4254 -14.3969 -0.320294 -2.18036 17.3673 6.39726 2.46966 22.6796 -0.0 -0.0 0.0 0.0 0.0 
1162.22634367 737.448 -1805.83578514 8.07011300263 27.927825792 -13.6712735333 -2.66774 0.855253 3.09139 -2.66266 0.656907 3.13948 -2.61918 -0.163981 3.20321 -2.63333 0.343702 3.18895 3.29255 1.40308 -0.848917 3.30729 3.16634 -0.854539 -0.0 0.0 -0.0 3.46883 -13.2079 5.74143 -16.5524 18.987 77.8412 0.34078 -9.5821 0.0285626 35.962 -0.156064 -4.51674 -0.457068 3.4654 -1.56604 -0.0 0.0 -0.0 10.7544 27.5915 -20.3764 35.8657 -22.8516 -60.8578 0.747824 20.3271 -0.134066 61.6695 1.9248 7.25977 -0.311533 -28.9015 -9.60346 0.0 0.0 0.0 27.8025 2.20521 5.48973 -62.149 -2.43645 8.75785 31.3065 3.22565 -4.0308 -11.5597 0.0 0.0 -0.0 0.0 -0.0 4.03324 -15.3758 12.8405 -14.7541 -0.321231 -2.23517 17.8926 9.37672 2.57408 24.6181 -0.0 -0.0 0.0 0.0 0.0 
